<svg width="86" height="90" viewBox="0 0 86 90" fill="none" xmlns="http://www.w3.org/2000/svg">
<g filter="url(#filter0_d_107_230)">
<path d="M64.4377 68.4377C67.1144 71.1144 67.141 75.512 64.0471 77.693C59.4585 80.9277 54.2184 83.1755 48.658 84.2601C40.8434 85.7844 32.7518 84.9419 25.4188 81.8406C18.0859 78.7392 11.8453 73.52 7.49589 66.8512C3.14651 60.1824 0.886234 52.3673 1.00441 44.4063C1.12258 36.4454 3.61382 28.7008 8.15923 22.164C12.7046 15.6272 19.0974 10.5955 26.5192 7.7132C33.9409 4.83085 42.054 4.22894 49.8199 5.9845C55.3457 7.23366 60.5167 9.63597 65.0073 13.0054C68.0351 15.2773 67.878 19.6722 65.123 22.2683C62.3681 24.8644 58.059 24.6388 54.8406 22.6461C52.3738 21.1188 49.6579 20.002 46.7973 19.3553C41.6928 18.2014 36.3601 18.597 31.4818 20.4916C26.6035 22.3861 22.4016 25.6934 19.4139 29.99C16.4263 34.2866 14.7888 39.3771 14.7111 44.6098C14.6334 49.8425 16.1191 54.9793 18.9779 59.3627C21.8368 63.7461 25.9387 67.1766 30.7586 69.2151C35.5785 71.2536 40.8971 71.8074 46.0336 70.8055C48.9121 70.244 51.66 69.2082 54.171 67.7549C57.4472 65.8586 61.761 65.761 64.4377 68.4377Z" fill="#F45046"/>
</g>
<g clip-path="url(#clip0_107_230)">
<path d="M80 41C83.3137 41 86 38.3137 86 35C86 31.6863 83.3137 29 80 29C76.6863 29 74 31.6863 74 35C74 38.3137 76.6863 41 80 41Z" fill="#232323"/>
<path d="M80 57.2856C83.3137 57.2856 86 54.5994 86 51.2856C86 47.9719 83.3137 45.2856 80 45.2856C76.6863 45.2856 74 47.9719 74 51.2856C74 54.5994 76.6863 57.2856 80 57.2856Z" fill="#232323"/>
<path d="M76.5806 53.0011H85.7431C84.3444 58.8613 80.8204 61.3116 76.5714 65.0001C76.5714 65.0001 82.7798 52.8409 76.5806 53.0011Z" fill="#232323"/>
</g>
<defs>
<filter id="filter0_d_107_230" x="0" y="3" width="72.2338" height="86" filterUnits="userSpaceOnUse" color-interpolation-filters="sRGB">
<feFlood flood-opacity="0" result="BackgroundImageFix"/>
<feColorMatrix in="SourceAlpha" type="matrix" values="0 0 0 0 0 0 0 0 0 0 0 0 0 0 0 0 0 0 127 0" result="hardAlpha"/>
<feOffset dx="2" dy="1"/>
<feGaussianBlur stdDeviation="1.5"/>
<feComposite in2="hardAlpha" operator="out"/>
<feColorMatrix type="matrix" values="0 0 0 0 0 0 0 0 0 0 0 0 0 0 0 0 0 0 0.15 0"/>
<feBlend mode="normal" in2="BackgroundImageFix" result="effect1_dropShadow_107_230"/>
<feBlend mode="normal" in="SourceGraphic" in2="effect1_dropShadow_107_230" result="shape"/>
</filter>
<clipPath id="clip0_107_230">
<rect width="12" height="36" fill="white" transform="translate(74 29)"/>
</clipPath>
</defs>
</svg>
